<svg xmlns="http://www.w3.org/2000/svg" viewBox="0 0 12.037 5.868">
  <defs>
    <style>
      .cls-1 {
        fill: #a9a9a9;
      }
    </style>
  </defs>
  <g id="_Back" data-name="â† Back" transform="translate(0.037 -0.067)">
    <path id="icon_arrow_back" data-name="icon/arrow_back" class="cls-1" d="M2.419,5.773.1,3.351A.517.517,0,0,1-.037,3,.509.509,0,0,1,.1,2.645L2.419.224a.509.509,0,0,1,.736,0,.51.51,0,0,1,0,.706L1.6,2.561h9.915a.5.5,0,0,1,0,1h-9.8L3.155,5.072a.51.51,0,0,1,0,.706.5.5,0,0,1-.368.158A.5.5,0,0,1,2.419,5.773Z"/>
  </g>
</svg>
