<svg id="icon_settings" data-name="icon/settings" xmlns="http://www.w3.org/2000/svg" viewBox="0 0 15 14">
  <defs>
    <style>
      .cls-1 {
        fill: rgba(0,0,0,0);
      }

      .cls-2 {
        fill: #121212;
      }
    </style>
  </defs>
  <rect id="icon_settings_background" data-name="icon/settings background" class="cls-1" width="15" height="14"/>
  <g id="settings" transform="translate(0.275 0.025)">
    <path id="Shape" class="cls-2" d="M4.024,3.162H2.642a.891.891,0,0,1-.89-.89V1.938H.356a.356.356,0,0,1,0-.712h1.4V.89A.891.891,0,0,1,2.642,0H4.024a.891.891,0,0,1,.89.89v.335H13.38a.356.356,0,1,1,0,.712H4.914v.334A.891.891,0,0,1,4.024,3.162ZM2.642.712A.178.178,0,0,0,2.464.89V2.272a.178.178,0,0,0,.178.178H4.024A.178.178,0,0,0,4.2,2.272V.89A.178.178,0,0,0,4.024.712Z" transform="translate(0 0)"/>
    <path id="Shape-2" data-name="Shape" class="cls-2" d="M11.094,3.162H9.712a.891.891,0,0,1-.89-.89V1.938H.356a.356.356,0,0,1,0-.712H8.822V.89A.891.891,0,0,1,9.712,0h1.382a.891.891,0,0,1,.89.89v.335h1.4a.356.356,0,1,1,0,.712h-1.4v.334A.891.891,0,0,1,11.094,3.162ZM9.712.712A.178.178,0,0,0,9.534.89V2.272a.178.178,0,0,0,.178.178h1.382a.178.178,0,0,0,.178-.178V.89a.178.178,0,0,0-.178-.178Z" transform="translate(0 3.967)"/>
    <path id="Shape-3" data-name="Shape" class="cls-2" d="M6.526,3.162H5.144a.891.891,0,0,1-.89-.89V1.938H.356a.356.356,0,0,1,0-.712h3.9V.89A.891.891,0,0,1,5.144,0H6.526a.891.891,0,0,1,.89.89v.335H13.38a.356.356,0,1,1,0,.712H7.416v.334A.891.891,0,0,1,6.526,3.162ZM5.144.712A.178.178,0,0,0,4.966.89V2.272a.178.178,0,0,0,.178.178H6.526A.178.178,0,0,0,6.7,2.272V.89A.178.178,0,0,0,6.526.712Z" transform="translate(0 8.225)"/>
  </g>
</svg>
