<svg xmlns="http://www.w3.org/2000/svg" viewBox="0 0 15.692 11.858">
  <defs>
    <style>
      .cls-1 {
        fill: #121212;
      }
    </style>
  </defs>
  <g id="Group" transform="translate(0 -0.049)">
    <path id="Shape" class="cls-1" d="M14.058,11.858H1.634A1.756,1.756,0,0,1,0,10.005V1.853A1.756,1.756,0,0,1,1.634,0H14.058a1.756,1.756,0,0,1,1.634,1.853v8.152A1.756,1.756,0,0,1,14.058,11.858ZM1.634.741A1.054,1.054,0,0,0,.653,1.853v8.152a1.054,1.054,0,0,0,.981,1.112H14.058a1.053,1.053,0,0,0,.98-1.112V1.853a1.054,1.054,0,0,0-.98-1.112Z" transform="translate(0 0.049)"/>
    <path id="Shape-2" data-name="Shape" class="cls-1" d="M15.366,2.965H.327A.351.351,0,0,1,0,2.594V.371A.351.351,0,0,1,.327,0H15.366a.351.351,0,0,1,.327.371V2.594A.351.351,0,0,1,15.366,2.965ZM.653.741V2.223H15.038V.741Z" transform="translate(0 2.272)"/>
    <path id="Shape-3" data-name="Shape" class="cls-1" d="M4.25,0H.327A.351.351,0,0,0,0,.371.351.351,0,0,0,.327.741H4.25A.351.351,0,0,0,4.577.371.351.351,0,0,0,4.25,0Z" transform="translate(1.962 7.46)"/>
    <path id="Shape-4" data-name="Shape" class="cls-1" d="M4.25,0H.327A.351.351,0,0,0,0,.371.351.351,0,0,0,.327.741H4.25A.351.351,0,0,0,4.577.371.351.351,0,0,0,4.25,0Z" transform="translate(1.962 8.942)"/>
    <path id="Shape-5" data-name="Shape" class="cls-1" d="M1.634,2.965H.981A1.054,1.054,0,0,1,0,1.853V1.112A1.054,1.054,0,0,1,.981,0h.653a1.054,1.054,0,0,1,.981,1.111v.742A1.054,1.054,0,0,1,1.634,2.965ZM.981.741a.352.352,0,0,0-.328.371v.742a.351.351,0,0,0,.328.37h.653a.351.351,0,0,0,.327-.37V1.112A.351.351,0,0,0,1.634.741Z" transform="translate(11.115 6.719)"/>
  </g>
</svg>
