<svg xmlns="http://www.w3.org/2000/svg" viewBox="0 0 14 15">
  <defs>
    <style>
      .cls-1 {
        fill: #121212;
      }
    </style>
  </defs>
  <g id="wallet" transform="translate(-1)">
    <g id="wallet-2" data-name="wallet" transform="translate(1)">
      <path id="Shape" class="cls-1" d="M12.363,15H.983A1.038,1.038,0,0,1,0,13.917V3.894A1.057,1.057,0,0,1,.912,2.81H.917l.005,0L11.111,0h.06a1.014,1.014,0,0,1,.922,1.084V2.81h.269a1.039,1.039,0,0,1,.983,1.085V6.477H13.7A.31.31,0,0,1,14,6.8v4.148a.292.292,0,0,1-.3.319h-.328v2.651A1.038,1.038,0,0,1,12.363,15ZM.983,3.416a.451.451,0,0,0-.417.478V13.917a.45.45,0,0,0,.417.477H12.363a.45.45,0,0,0,.417-.477V11.265H9.8A2.321,2.321,0,0,1,7.565,8.871,2.294,2.294,0,0,1,9.8,6.477h2.948V3.894a.451.451,0,0,0-.417-.478ZM9.8,7.151a1.758,1.758,0,0,0,0,3.508h3.6V7.151ZM11.228.606l-7.923,2.2h8.22V1.084a.474.474,0,0,0-.3-.478Z"/>
      <path id="Shape-2" data-name="Shape" class="cls-1" d="M0,.5c0,.3.172.5.344.5H.656C.828,1,1,.8,1,.5S.828,0,.656,0H.348C.139,0,0,.2,0,.5Z" transform="translate(9.506 8.455)"/>
    </g>
  </g>
</svg>
